<mxfile host="65bd71144e">
    <diagram id="j4A0J9FWNuExyNQzeHtO" name="Page-1">
        <mxGraphModel dx="766" dy="584" grid="1" gridSize="10" guides="1" tooltips="1" connect="1" arrows="1" fold="1" page="1" pageScale="1" pageWidth="827" pageHeight="1169" background="#ffffff" math="0" shadow="0">
            <root>
                <mxCell id="0"/>
                <mxCell id="1" parent="0"/>
                <mxCell id="boundary_box" value="" style="rounded=0;whiteSpace=wrap;html=1;fillColor=none;strokeColor=#000000;" parent="1" vertex="1">
                    <mxGeometry x="200" y="40" width="440" height="680" as="geometry"/>
                </mxCell>
                <mxCell id="system_title" value="Club Connect - Sports Management System" style="text;html=1;strokeColor=#000000;fillColor=none;align=center;verticalAlign=middle;whiteSpace=wrap;rounded=0;fontSize=16;fontStyle=1" parent="1" vertex="1">
                    <mxGeometry x="250" y="60" width="340" height="20" as="geometry"/>
                </mxCell>
                <mxCell id="actor1" value="Admin&#10;(Sports Officer)" style="shape=umlActor;verticalLabelPosition=bottom;verticalAlign=top;html=1;strokeColor=#000000;" parent="1" vertex="1">
                    <mxGeometry x="90" y="180" width="30" height="60" as="geometry"/>
                </mxCell>
                <mxCell id="actor2" value="Club Manager" style="shape=umlActor;verticalLabelPosition=bottom;verticalAlign=top;html=1;strokeColor=#000000;" parent="1" vertex="1">
                    <mxGeometry x="750" y="360" width="30" height="60" as="geometry"/>
                </mxCell>
                <mxCell id="actor3" value="Club Member" style="shape=umlActor;verticalLabelPosition=bottom;verticalAlign=top;html=1;strokeColor=#000000;" parent="1" vertex="1">
                    <mxGeometry x="720" y="120" width="30" height="60" as="geometry"/>
                </mxCell>
                <mxCell id="uc_login" value="Login" style="ellipse;whiteSpace=wrap;html=1;strokeColor=#000000;" parent="1" vertex="1">
                    <mxGeometry x="340" y="130" width="140" height="40" as="geometry"/>
                </mxCell>
                <mxCell id="uc_view_club" value="View Club Details" style="ellipse;whiteSpace=wrap;html=1;strokeColor=#000000;" parent="1" vertex="1">
                    <mxGeometry x="339" y="183" width="140" height="40" as="geometry"/>
                </mxCell>
                <mxCell id="uc_view_events" value="View Event Details" style="ellipse;whiteSpace=wrap;html=1;strokeColor=#000000;" parent="1" vertex="1">
                    <mxGeometry x="344" y="230" width="140" height="40" as="geometry"/>
                </mxCell>
                <mxCell id="uc_manage_profile" value="Manage Profile" style="ellipse;whiteSpace=wrap;html=1;strokeColor=#000000;" parent="1" vertex="1">
                    <mxGeometry x="340" y="270" width="140" height="40" as="geometry"/>
                </mxCell>
                <mxCell id="uc_dashboard" value="Dashboard" style="ellipse;whiteSpace=wrap;html=1;strokeColor=#000000;" parent="1" vertex="1">
                    <mxGeometry x="240" y="320" width="140" height="40" as="geometry"/>
                </mxCell>
                <mxCell id="uc_manage_events" value="Manage Events" style="ellipse;whiteSpace=wrap;html=1;strokeColor=#000000;" parent="1" vertex="1">
                    <mxGeometry x="240" y="370" width="140" height="40" as="geometry"/>
                </mxCell>
                <mxCell id="uc_generate_reports" value="Generate Reports" style="ellipse;whiteSpace=wrap;html=1;strokeColor=#000000;" parent="1" vertex="1">
                    <mxGeometry x="240" y="420" width="140" height="40" as="geometry"/>
                </mxCell>
                <mxCell id="uc_approve_managers" value="Approve Managers &amp; Clubs" style="ellipse;whiteSpace=wrap;html=1;strokeColor=#000000;" parent="1" vertex="1">
                    <mxGeometry x="240" y="470" width="140" height="40" as="geometry"/>
                </mxCell>
                <mxCell id="uc_manage_sports" value="Manage Sports" style="ellipse;whiteSpace=wrap;html=1;strokeColor=#000000;" parent="1" vertex="1">
                    <mxGeometry x="240" y="520" width="140" height="40" as="geometry"/>
                </mxCell>
                <mxCell id="uc_register_manager" value="Register Manager" style="ellipse;whiteSpace=wrap;html=1;strokeColor=#000000;" parent="1" vertex="1">
                    <mxGeometry x="440" y="320" width="140" height="40" as="geometry"/>
                </mxCell>
                <mxCell id="uc_manage_club" value="Manage Club" style="ellipse;whiteSpace=wrap;html=1;strokeColor=#000000;" parent="1" vertex="1">
                    <mxGeometry x="440" y="370" width="140" height="40" as="geometry"/>
                </mxCell>
                <mxCell id="uc_manage_members" value="Manage Club Members" style="ellipse;whiteSpace=wrap;html=1;strokeColor=#000000;" parent="1" vertex="1">
                    <mxGeometry x="440" y="420" width="140" height="40" as="geometry"/>
                </mxCell>
                <mxCell id="uc_add_participants" value="Add Participants to Events" style="ellipse;whiteSpace=wrap;html=1;strokeColor=#000000;" parent="1" vertex="1">
                    <mxGeometry x="440" y="470" width="140" height="40" as="geometry"/>
                </mxCell>
                <mxCell id="uc_approve_members" value="Approve Members" style="ellipse;whiteSpace=wrap;html=1;strokeColor=#000000;" parent="1" vertex="1">
                    <mxGeometry x="440" y="520" width="140" height="40" as="geometry"/>
                </mxCell>
                <mxCell id="uc_manage_arenas" value="Manage Sports Arenas" style="ellipse;whiteSpace=wrap;html=1;strokeColor=#000000;" parent="1" vertex="1">
                    <mxGeometry x="440" y="570" width="140" height="40" as="geometry"/>
                </mxCell>
                <mxCell id="uc_register_member" value="Register Member" style="ellipse;whiteSpace=wrap;html=1;strokeColor=#000000;" parent="1" vertex="1">
                    <mxGeometry x="440" y="98" width="140" height="40" as="geometry"/>
                </mxCell>
                <mxCell id="conn_admin_login" value="" style="endArrow=none;html=1;strokeColor=#000000;" parent="1" source="actor1" target="uc_login" edge="1">
                    <mxGeometry width="50" height="50" relative="1" as="geometry"/>
                </mxCell>
                <mxCell id="conn_admin_dashboard" value="" style="endArrow=none;html=1;strokeColor=#000000;" parent="1" source="actor1" target="uc_dashboard" edge="1">
                    <mxGeometry width="50" height="50" relative="1" as="geometry"/>
                </mxCell>
                <mxCell id="conn_admin_events" value="" style="endArrow=none;html=1;strokeColor=#000000;" parent="1" source="actor1" target="uc_manage_events" edge="1">
                    <mxGeometry width="50" height="50" relative="1" as="geometry"/>
                </mxCell>
                <mxCell id="conn_admin_reports" value="" style="endArrow=none;html=1;strokeColor=#000000;" parent="1" source="actor1" target="uc_generate_reports" edge="1">
                    <mxGeometry width="50" height="50" relative="1" as="geometry"/>
                </mxCell>
                <mxCell id="conn_admin_profile" value="" style="endArrow=none;html=1;strokeColor=#000000;" parent="1" source="actor1" target="uc_manage_profile" edge="1">
                    <mxGeometry width="50" height="50" relative="1" as="geometry"/>
                </mxCell>
                <mxCell id="conn_admin_approve" value="" style="endArrow=none;html=1;strokeColor=#000000;" parent="1" source="actor1" target="uc_approve_managers" edge="1">
                    <mxGeometry width="50" height="50" relative="1" as="geometry"/>
                </mxCell>
                <mxCell id="conn_admin_sports" value="" style="endArrow=none;html=1;strokeColor=#000000;" parent="1" source="actor1" target="uc_manage_sports" edge="1">
                    <mxGeometry width="50" height="50" relative="1" as="geometry"/>
                </mxCell>
                <mxCell id="conn_admin_view_club" value="" style="endArrow=none;html=1;strokeColor=#000000;" parent="1" source="actor1" target="uc_view_club" edge="1">
                    <mxGeometry width="50" height="50" relative="1" as="geometry"/>
                </mxCell>
                <mxCell id="conn_manager_register" value="" style="endArrow=none;html=1;strokeColor=#000000;" parent="1" source="actor2" target="uc_register_manager" edge="1">
                    <mxGeometry width="50" height="50" relative="1" as="geometry"/>
                </mxCell>
                <mxCell id="conn_manager_login" value="" style="endArrow=none;html=1;strokeColor=#000000;" parent="1" source="actor2" target="uc_login" edge="1">
                    <mxGeometry width="50" height="50" relative="1" as="geometry"/>
                </mxCell>
                <mxCell id="conn_manager_club" value="" style="endArrow=none;html=1;strokeColor=#000000;" parent="1" source="actor2" target="uc_manage_club" edge="1">
                    <mxGeometry width="50" height="50" relative="1" as="geometry"/>
                </mxCell>
                <mxCell id="conn_manager_members" value="" style="endArrow=none;html=1;strokeColor=#000000;" parent="1" source="actor2" target="uc_manage_members" edge="1">
                    <mxGeometry width="50" height="50" relative="1" as="geometry"/>
                </mxCell>
                <mxCell id="conn_manager_participants" value="" style="endArrow=none;html=1;strokeColor=#000000;" parent="1" source="actor2" target="uc_add_participants" edge="1">
                    <mxGeometry width="50" height="50" relative="1" as="geometry"/>
                </mxCell>
                <mxCell id="conn_manager_profile" value="" style="endArrow=none;html=1;strokeColor=#000000;" parent="1" source="actor2" target="uc_manage_profile" edge="1">
                    <mxGeometry width="50" height="50" relative="1" as="geometry"/>
                </mxCell>
                <mxCell id="conn_manager_approve" value="" style="endArrow=none;html=1;strokeColor=#000000;" parent="1" source="actor2" target="uc_approve_members" edge="1">
                    <mxGeometry width="50" height="50" relative="1" as="geometry"/>
                </mxCell>
                <mxCell id="conn_manager_arenas" value="" style="endArrow=none;html=1;strokeColor=#000000;" parent="1" source="actor2" target="uc_manage_arenas" edge="1">
                    <mxGeometry width="50" height="50" relative="1" as="geometry"/>
                </mxCell>
                <mxCell id="conn_manager_view_events" value="" style="endArrow=none;html=1;strokeColor=#000000;" parent="1" source="actor2" target="uc_view_events" edge="1">
                    <mxGeometry width="50" height="50" relative="1" as="geometry"/>
                </mxCell>
                <mxCell id="conn_member_register" value="" style="endArrow=none;html=1;strokeColor=#000000;" parent="1" target="uc_register_member" edge="1">
                    <mxGeometry width="50" height="50" relative="1" as="geometry">
                        <mxPoint x="720" y="150" as="sourcePoint"/>
                    </mxGeometry>
                </mxCell>
                <mxCell id="conn_member_login" value="" style="endArrow=none;html=1;strokeColor=#000000;" parent="1" target="uc_login" edge="1">
                    <mxGeometry width="50" height="50" relative="1" as="geometry">
                        <mxPoint x="720" y="150" as="sourcePoint"/>
                    </mxGeometry>
                </mxCell>
                <mxCell id="conn_member_view_club" value="" style="endArrow=none;html=1;strokeColor=#000000;" parent="1" source="actor3" target="uc_view_club" edge="1">
                    <mxGeometry width="50" height="50" relative="1" as="geometry"/>
                </mxCell>
                <mxCell id="conn_member_view_events" value="" style="endArrow=none;html=1;strokeColor=#000000;" parent="1" source="actor3" target="uc_view_events" edge="1">
                    <mxGeometry width="50" height="50" relative="1" as="geometry"/>
                </mxCell>
                <mxCell id="conn_member_profile" value="" style="endArrow=none;html=1;strokeColor=#000000;" parent="1" source="actor3" target="uc_manage_profile" edge="1">
                    <mxGeometry width="50" height="50" relative="1" as="geometry"/>
                </mxCell>
                <mxCell id="2" value="." style="text;html=1;align=center;verticalAlign=middle;resizable=0;points=[];autosize=1;strokeColor=none;fillColor=none;" vertex="1" parent="1">
                    <mxGeometry x="395" width="30" height="30" as="geometry"/>
                </mxCell>
                <mxCell id="3" value="." style="text;html=1;align=center;verticalAlign=middle;resizable=0;points=[];autosize=1;strokeColor=none;fillColor=none;" vertex="1" parent="1">
                    <mxGeometry x="797" y="375" width="30" height="30" as="geometry"/>
                </mxCell>
                <mxCell id="4" value="." style="text;html=1;align=center;verticalAlign=middle;resizable=0;points=[];autosize=1;strokeColor=none;fillColor=none;" vertex="1" parent="1">
                    <mxGeometry x="384" y="750" width="30" height="30" as="geometry"/>
                </mxCell>
                <mxCell id="5" value="." style="text;html=1;align=center;verticalAlign=middle;resizable=0;points=[];autosize=1;strokeColor=none;fillColor=none;" vertex="1" parent="1">
                    <mxGeometry x="10" y="340" width="30" height="30" as="geometry"/>
                </mxCell>
            </root>
        </mxGraphModel>
    </diagram>
</mxfile>